<?xml version="1.0" encoding="UTF-8" standalone="no"?>
<svg
   class="img-fluid"
   id="outputsvg"
   width="25"
   height="25.000002"
   viewBox="0 0 250 250.00002"
   version="1.1"
   sodipodi:docname="component.svg"
   inkscape:version="1.2.1 (9c6d41e410, 2022-07-14)"
   xmlns:inkscape="http://www.inkscape.org/namespaces/inkscape"
   xmlns:sodipodi="http://sodipodi.sourceforge.net/DTD/sodipodi-0.dtd"
   xmlns:xlink="http://www.w3.org/1999/xlink"
   xmlns="http://www.w3.org/2000/svg"
   xmlns:svg="http://www.w3.org/2000/svg">
  <defs
     id="defs67">
    <linearGradient
       inkscape:collect="always"
       id="linearGradient1105">
      <stop
         style="stop-color:#cc00ff;stop-opacity:1;"
         offset="0"
         id="stop1101" />
      <stop
         style="stop-color:#ff00b2;stop-opacity:1;"
         offset="1"
         id="stop1103" />
    </linearGradient>
    <linearGradient
       inkscape:collect="always"
       xlink:href="#linearGradient1105"
       id="linearGradient1107"
       x1="1822.6322"
       y1="2582.7849"
       x2="3329.2947"
       y2="2582.7849"
       gradientUnits="userSpaceOnUse"
       gradientTransform="matrix(1.2373552,0,0,1.2373552,-527.38011,-655.82338)" />
  </defs>
  <sodipodi:namedview
     id="namedview65"
     pagecolor="#ffffff"
     bordercolor="#000000"
     borderopacity="0.25"
     inkscape:showpageshadow="2"
     inkscape:pageopacity="0.0"
     inkscape:pagecheckerboard="0"
     inkscape:deskcolor="#d1d1d1"
     showgrid="false"
     inkscape:zoom="32.079997"
     inkscape:cx="6.8110978"
     inkscape:cy="12.500001"
     inkscape:window-width="1920"
     inkscape:window-height="1011"
     inkscape:window-x="0"
     inkscape:window-y="0"
     inkscape:window-maximized="1"
     inkscape:current-layer="g900" />
  <g
     id="g900"
     transform="matrix(0.05066295,0,0,0.05266465,-0.64411523,-5.6083216)">
    <g
       id="l3jQEFjvHh9hCSnlDIx66HT"
       fill="#000000"
       transform="matrix(1.2373552,0,0,1.2373552,-563.89379,-638.34072)">
      <g
         id="g61"
         style="fill:#000000;fill-opacity:1">
        <path
           id="pTJ2BjQEu"
           d="M 2123,4424 C 2014,4406 1834,4347 1735,4298 1519,4190 1390,4075 1120,3750 1017,3626 871,3453 796,3365 593,3129 544,3051 493,2879 c -24,-84 -27,-109 -27,-239 0,-106 5,-162 18,-210 41,-155 91,-255 185,-372 106,-134 14,-76 1566,-980 336,-195 637,-369 670,-385 140,-71 347,-106 505,-85 299,38 561,221 699,487 58,110 81,201 131,503 27,163 86,518 131,787 74,439 82,504 83,625 0,110 -4,150 -22,219 -58,216 -191,409 -357,521 -112,76 -920,475 -1180,583 -99,41 -218,75 -319,92 -117,18 -340,18 -453,-1 z m 450,-205 c 204,-41 306,-85 987,-426 382,-191 448,-234 543,-352 108,-136 151,-261 150,-441 0,-97 -14,-199 -91,-661 -50,-301 -107,-643 -126,-760 -45,-270 -56,-313 -114,-422 -36,-69 -64,-105 -127,-165 -44,-42 -104,-90 -133,-105 -161,-87 -358,-117 -509,-79 -45,11 -108,31 -141,45 -78,31 -2010,1158 -2087,1217 -167,129 -265,332 -265,552 0,191 57,347 176,478 75,85 458,536 551,650 194,240 401,376 678,445 197,49 349,57 508,24 z"
           style="fill:#000000;fill-opacity:1" />
      </g>
    </g>
    <text
       xml:space="preserve"
       style="font-size:1649.8px;fill:url(#linearGradient1107);fill-opacity:1;stroke-width:12.3736"
       x="1666.8206"
       y="3112.4807"
       id="text281"><tspan
         sodipodi:role="line"
         id="tspan279"
         style="font-style:normal;font-variant:normal;font-weight:800;font-stretch:normal;font-size:1649.8px;font-family:Cantarell;-inkscape-font-specification:'Cantarell Ultra-Bold';fill:#000000;fill-opacity:1;stroke-width:12.3736"
         x="1666.8206"
         y="3112.4807">CL</tspan></text>
  </g>
</svg>
