<svg width="26" height="24" viewBox="0 0 26 24" fill="none" xmlns="http://www.w3.org/2000/svg">
<line x1="5.34857" y1="6" x2="17.0986" y2="6" stroke="black" stroke-width="2.25" stroke-linecap="round"/>
<line x1="5.125" y1="10.875" x2="16.875" y2="10.875" stroke="black" stroke-width="2.25" stroke-linecap="round"/>
<path d="M5 16H14" stroke="black" stroke-width="2.25" stroke-linecap="round"/>
<path d="M6.69873 20.8636L13.8453 20.8733" stroke="black" stroke-width="2.25" stroke-linecap="round"/>
<path d="M21.8818 4.83633L21.8818 11.8363" stroke="black" stroke-width="2.25" stroke-linecap="round"/>
<path fill-rule="evenodd" clip-rule="evenodd" d="M4 2.25H19C19.9665 2.25 20.75 3.0335 20.75 4V9H23V4C23 1.79086 21.2091 0 19 0H4C1.79086 0 0 1.79086 0 4V18C0 20.2091 1.79086 22 4 22H12V19.75H4C3.0335 19.75 2.25 18.9665 2.25 18V4C2.25 3.0335 3.0335 2.25 4 2.25Z" fill="black"/>
<path d="M25.9237 20.6866C25.9237 20.6418 24.956 19.9254 24.956 19.9254C24.956 19.791 25.0021 19.6567 25.0021 19.4776C25.0021 19.3433 25.0021 19.1642 24.956 19.0299L25.9237 18.2687C26.0158 18.1791 26.0158 18.0896 25.9697 18L25.0481 16.4328C25.0021 16.3433 24.8638 16.3433 24.7717 16.3433L23.6197 16.791C23.3893 16.6119 23.1128 16.4776 22.8363 16.3433L22.652 15.1791C22.652 15.0896 22.5598 15 22.4216 15H20.5784C20.4862 15 20.348 15.0896 20.348 15.1791L20.1637 16.3433C19.8872 16.4328 19.6107 16.6119 19.3803 16.791L18.2283 16.3433C18.1362 16.2985 17.9979 16.3433 17.9519 16.4328L17.0303 18C16.9842 18.0896 16.9842 18.2239 17.0763 18.2687L18.044 19.0299C18.044 19.1642 17.9979 19.3433 17.9979 19.4776C17.9979 19.6119 17.9979 19.791 18.044 19.9254L17.0763 20.6866C16.9842 20.7761 16.9842 20.8657 17.0303 20.9552L17.9519 22.5224C17.9979 22.6119 18.1362 22.6567 18.2283 22.6119L19.3803 22.1642C19.6107 22.3433 19.8872 22.4776 20.1637 22.6119L20.348 23.8209C20.348 23.9104 20.4402 24 20.5784 24H22.4216C22.5138 24 22.652 23.9104 22.652 23.8209L22.8363 22.6119C23.1128 22.5224 23.3893 22.3433 23.6197 22.1642L24.7717 22.6119C24.8638 22.6567 25.0021 22.6119 25.0481 22.5224L25.9697 20.9552C26.0158 20.8657 26.0158 20.7313 25.9237 20.6866ZM21.5461 20.8209C20.7627 20.8209 20.1637 20.2388 20.1637 19.4776C20.1637 18.7164 20.7627 18.1343 21.5461 18.1343C22.3294 18.1343 22.9285 18.7164 22.9285 19.4776C22.9285 20.2388 22.2834 20.8209 21.5461 20.8209Z" fill="black"/>
</svg>
